<svg width="26" height="26" viewBox="0 0 26 26" fill="none" xmlns="http://www.w3.org/2000/svg">
<path d="M15.9827 20.2647L20.1121 24.3941C21.2592 25.5412 23.2474 25.5412 24.3945 24.3941C25.618 23.2471 25.618 21.2588 24.3945 20.1118L20.2651 15.9824C21.0298 14.5294 21.4886 12.8471 21.4886 11.0882C21.4886 10.7824 21.4886 10.4765 21.4121 10.2471L24.2415 7.41765C24.5474 7.11177 24.5474 6.65295 24.2415 6.34706C23.9356 6.04118 23.4768 6.04118 23.1709 6.34706L21.1062 8.41177C20.6474 6.65295 19.7298 5.12353 18.4298 3.82353C14.3768 -0.229406 7.87683 -0.229406 3.82389 3.82353C-0.229056 7.87648 -0.229056 14.3765 3.82389 18.4294C7.18859 21.7941 12.1592 22.3294 15.9827 20.2647ZM23.2474 21.1824C23.8592 21.7941 23.8592 22.7118 23.2474 23.3235C22.6356 23.9353 21.718 23.9353 21.1062 23.3235L17.2062 19.4235L17.2063 19.4235C17.5886 19.1176 17.971 18.8118 18.3533 18.4294C18.7356 18.0471 19.0415 17.6647 19.3474 17.2824L19.3474 17.2824L23.2474 21.1824ZM4.89447 4.89412C8.33565 1.45295 13.918 1.45295 17.3592 4.89412C18.6592 6.19412 19.5004 7.87648 19.8062 9.71177L18.2768 11.2412L15.7533 8.71765C15.4474 8.41177 14.9886 8.41177 14.6827 8.71765L10.7062 12.6941L8.94741 10.9353C8.64153 10.6294 8.18271 10.6294 7.87683 10.9353L4.818 13.9941C4.51212 14.3 4.51212 14.7588 4.818 15.0647C5.12389 15.3706 5.58271 15.3706 5.88859 15.0647L8.41212 12.5412C8.75994 12.8194 9.07964 13.168 9.37973 13.4952C10.0693 14.2471 10.6554 14.8861 11.2415 14.3L15.218 10.3235L17.7415 12.8471C18.0474 13.1529 18.5062 13.1529 18.8121 12.8471L19.8827 11.7765C19.7298 13.9177 18.8121 15.8294 17.3592 17.3588C13.918 20.8 8.33565 20.8 4.89447 17.3588C1.4533 13.9177 1.4533 8.3353 4.89447 4.89412Z" fill="white"/>
<path d="M15.9827 20.2647L20.1121 24.3941C21.2592 25.5412 23.2474 25.5412 24.3945 24.3941C25.618 23.2471 25.618 21.2588 24.3945 20.1118L20.2651 15.9824C21.0298 14.5294 21.4886 12.8471 21.4886 11.0882C21.4886 10.7824 21.4886 10.4765 21.4121 10.2471L24.2415 7.41765C24.5474 7.11177 24.5474 6.65295 24.2415 6.34706C23.9356 6.04118 23.4768 6.04118 23.1709 6.34706L21.1062 8.41177C20.6474 6.65295 19.7298 5.12353 18.4298 3.82353C14.3768 -0.229406 7.87683 -0.229406 3.82389 3.82353C-0.229056 7.87648 -0.229056 14.3765 3.82389 18.4294C7.18859 21.7941 12.1592 22.3294 15.9827 20.2647ZM23.2474 21.1824C23.8592 21.7941 23.8592 22.7118 23.2474 23.3235C22.6356 23.9353 21.718 23.9353 21.1062 23.3235L17.2062 19.4235L17.2063 19.4235C17.5886 19.1176 17.971 18.8118 18.3533 18.4294C18.7356 18.0471 19.0415 17.6647 19.3474 17.2824L19.3474 17.2824L23.2474 21.1824ZM4.89447 4.89412C8.33565 1.45295 13.918 1.45295 17.3592 4.89412C18.6592 6.19412 19.5004 7.87648 19.8062 9.71177L18.2768 11.2412L15.7533 8.71765C15.4474 8.41177 14.9886 8.41177 14.6827 8.71765L10.7062 12.6941L8.94741 10.9353C8.64153 10.6294 8.18271 10.6294 7.87683 10.9353L4.818 13.9941C4.51212 14.3 4.51212 14.7588 4.818 15.0647C5.12389 15.3706 5.58271 15.3706 5.88859 15.0647L8.41212 12.5412C8.75994 12.8194 9.07964 13.168 9.37973 13.4952C10.0693 14.2471 10.6554 14.8861 11.2415 14.3L15.218 10.3235L17.7415 12.8471C18.0474 13.1529 18.5062 13.1529 18.8121 12.8471L19.8827 11.7765C19.7298 13.9177 18.8121 15.8294 17.3592 17.3588C13.918 20.8 8.33565 20.8 4.89447 17.3588C1.4533 13.9177 1.4533 8.3353 4.89447 4.89412Z" stroke="white"/>
</svg>
