<svg width="24" height="24" viewBox="0 0 24 24" fill="none" xmlns="http://www.w3.org/2000/svg">
<path d="M21.8665 6.71306H17.9198C17.5056 6.71306 17.1698 7.04887 17.1698 7.46306V9.02334H13.9731C13.5588 9.02334 13.2231 9.35915 13.2231 9.77334V11.3337H10.0263C9.61209 11.3337 9.27633 11.6695 9.27633 12.0837V14.2215H6.07959C5.66536 14.2215 5.32959 14.5573 5.32959 14.9715V16.4174H2.13281C1.71858 16.4174 1.38281 16.7533 1.38281 17.1674V23.25C1.38281 23.6642 1.71858 24 2.13281 24H21.8665C22.2808 24 22.6165 23.6642 22.6165 23.25V7.46306C22.6165 7.04882 22.2808 6.71306 21.8665 6.71306ZM2.88281 17.9174H5.32955V22.5H2.88281V17.9174ZM6.82955 15.7214H9.27628V22.5H6.82955V15.7214ZM10.7763 12.8336H13.223V22.5H10.7763V12.8336ZM14.7231 10.5233H17.1698V22.5H14.7231V10.5233ZM21.1165 22.5H18.6698V8.21306H21.1165V22.5ZM2.56167 11.7832C2.43581 11.3886 2.65378 10.9666 3.04842 10.8408C7.64484 9.37518 14.5918 5.18268 18.5835 1.53778L17.0522 1.56942C17.047 1.56951 17.0417 1.56956 17.0364 1.56956C16.6294 1.56956 16.2953 1.24392 16.2869 0.835073C16.2784 0.420933 16.6072 0.0782762 17.0213 0.069745L20.3867 0.000229361C20.4919 -0.00219987 20.5964 0.0176527 20.6934 0.0584829C20.7903 0.0993131 20.8776 0.160197 20.9493 0.237136C21.0213 0.313871 21.0763 0.40488 21.1107 0.504251C21.1452 0.603622 21.1584 0.709133 21.1494 0.813933L20.8628 4.16779C20.8275 4.58048 20.4649 4.88657 20.0517 4.85118C19.6389 4.81593 19.333 4.45275 19.3683 4.04006L19.4786 2.74982C17.6752 4.37596 15.2503 6.16856 12.6278 7.80328C9.32892 9.85954 6.08878 11.4458 3.50414 12.2699C3.43044 12.2936 3.35353 12.3056 3.27614 12.3056C2.95833 12.3055 2.66339 12.102 2.56167 11.7832Z" fill="white"/>
</svg>
