<svg width="24" height="24" viewBox="0 0 24 24" fill="none" xmlns="http://www.w3.org/2000/svg">
<path d="M8.78997 1.2439C6.93084 1.2485 5.25012 1.57714 3.98714 2.1499C3.35343 2.43637 2.82284 2.779 2.42387 3.20631C2.02951 3.62884 1.7666 4.14987 1.7666 4.72281L1.77121 9.37984C1.76902 9.39542 1.76748 9.41108 1.7666 9.42679C1.7666 9.48312 1.7666 9.53946 1.77121 9.59119L1.7806 14.0558C1.77379 14.0836 1.76912 14.1118 1.7666 14.1403C1.7666 14.2154 1.77121 14.2953 1.78077 14.3657L1.78538 19.0792C1.78588 19.1107 1.78902 19.1421 1.79477 19.1731C1.97778 20.2435 2.94029 20.9947 4.18432 21.5159C5.4333 22.0323 7.04352 22.3328 8.79936 22.3328C11.3861 22.3328 13.6396 21.7319 14.9026 20.6285C15.0106 20.6333 15.1185 20.6379 15.2264 20.6379C15.602 20.6379 15.9776 20.6051 16.3438 20.5394C16.4417 20.5219 16.5332 20.4788 16.6091 20.4145C16.6849 20.3502 16.7424 20.2669 16.7757 20.1732L17.0761 19.3281C17.2354 19.2708 17.392 19.2066 17.5456 19.1356L18.3531 19.5205C18.4434 19.5639 18.5437 19.5825 18.6436 19.5742C18.7434 19.566 18.8393 19.5312 18.9213 19.4736C19.5316 19.0417 20.0668 18.5112 20.4941 17.8961C20.5509 17.8147 20.5851 17.7197 20.5933 17.6207C20.6015 17.5218 20.5834 17.4225 20.5409 17.3328L20.1561 16.5207C20.231 16.3704 20.2922 16.2108 20.3531 16.0558L21.1982 15.7553C21.2919 15.7221 21.3751 15.6646 21.4395 15.5887C21.5038 15.5129 21.5469 15.4213 21.5643 15.3234C21.6255 14.9526 21.6582 14.5816 21.6582 14.2061C21.6582 13.8305 21.6255 13.4597 21.5643 13.0935C21.5477 12.9947 21.5049 12.9022 21.4406 12.8254C21.3763 12.7487 21.2926 12.6905 21.1983 12.6568L20.3533 12.3563C20.2959 12.1987 20.2317 12.0436 20.1607 11.8916L20.5457 11.0793C20.5882 10.9896 20.6062 10.8903 20.598 10.7913C20.5897 10.6924 20.5555 10.5974 20.4987 10.516C20.0672 9.90367 19.5336 9.37009 18.9213 8.93853C18.8393 8.88088 18.7434 8.84614 18.6436 8.83789C18.5437 8.82963 18.4434 8.84817 18.3531 8.89158L17.5458 9.27655C17.3922 9.2056 17.2355 9.14141 17.0763 9.08416L16.7757 8.2391C16.7424 8.14539 16.685 8.06215 16.6091 7.99783C16.5333 7.93352 16.4418 7.89042 16.3439 7.87291C16.1685 7.83988 15.9913 7.81635 15.8133 7.8024C15.8181 6.74138 15.8227 5.70392 15.8275 4.72263C15.8275 4.14987 15.5644 3.62423 15.1655 3.20153C14.7711 2.779 14.2359 2.43158 13.602 2.14529C12.3298 1.57253 10.6491 1.2439 8.78997 1.2439ZM8.78997 2.37064C10.5129 2.37064 12.0669 2.68988 13.1373 3.17336C13.6725 3.41748 14.0857 3.69917 14.3438 3.97147C14.6021 4.24855 14.7006 4.48789 14.7006 4.72263C14.7006 4.95737 14.6021 5.19689 14.3438 5.47379C14.0857 5.74609 13.6725 6.02777 13.1373 6.2719C12.0669 6.75555 10.5129 7.0748 8.78997 7.07001C7.07169 7.07001 5.51781 6.75077 4.45201 6.2673C3.9168 6.02317 3.50366 5.74148 3.24554 5.46919C2.99185 5.19689 2.89335 4.95737 2.89335 4.72263C2.89335 4.48789 2.99185 4.24855 3.24536 3.97625C3.50367 3.69917 3.9168 3.41748 4.45201 3.17814C5.51763 2.69449 7.07169 2.37525 8.78997 2.37064ZM2.89795 6.66166C3.21259 6.901 3.57878 7.10757 3.98714 7.29536C5.25012 7.86352 6.93084 8.19676 8.78997 8.19676C10.6491 8.20154 12.3298 7.86812 13.602 7.29536C14.0106 7.11235 14.3767 6.901 14.6912 6.66644C14.6912 7.04202 14.6912 7.40804 14.6866 7.79779C14.4988 7.81196 14.3062 7.83535 14.1138 7.87291C14.0159 7.89039 13.9244 7.93348 13.8485 7.99779C13.7727 8.06211 13.7152 8.14537 13.6819 8.2391L13.3815 9.07937C13.2218 9.14049 13.0668 9.20161 12.912 9.27655L12.1045 8.89158C12.0142 8.84817 11.9139 8.82963 11.814 8.83789C11.7142 8.84614 11.6183 8.88088 11.5363 8.93853C10.926 9.37045 10.3908 9.90105 9.96366 10.516C9.90689 10.5974 9.87265 10.6924 9.86441 10.7913C9.85617 10.8903 9.87421 10.9896 9.91672 11.0793L10.2266 11.732C10.1771 11.7222 10.1266 11.719 10.0763 11.7226C9.64863 11.761 9.21939 11.7798 8.78997 11.779C7.07169 11.779 5.51781 11.4549 4.45201 10.9715C3.9168 10.7319 3.50366 10.4502 3.24554 10.1779C3.0294 9.94321 2.92612 9.73682 2.89795 9.53485V6.66166ZM15.2218 8.90097H15.2264C15.4284 8.90097 15.6303 8.91514 15.8321 8.93853L16.1044 9.70847C16.1341 9.79226 16.1831 9.86786 16.2476 9.92907C16.312 9.99028 16.39 10.0354 16.4752 10.0607C16.7523 10.1452 17.0246 10.2578 17.2781 10.3939C17.3562 10.4365 17.4433 10.46 17.5322 10.4625C17.6212 10.4649 17.7094 10.4463 17.7898 10.4081L18.5269 10.0559C18.8414 10.3094 19.1278 10.5911 19.3766 10.9057L19.0246 11.6475C18.9871 11.7272 18.9689 11.8146 18.9714 11.9027C18.9738 11.9908 18.9969 12.077 19.0387 12.1545C19.1777 12.4113 19.2894 12.682 19.372 12.962C19.3973 13.0472 19.4423 13.1252 19.5035 13.1897C19.5647 13.2541 19.6402 13.3032 19.724 13.3328L20.4939 13.6051C20.5175 13.8023 20.5315 14.0043 20.5315 14.2061C20.5315 14.4078 20.5175 14.61 20.4939 14.807L19.724 15.0841C19.6407 15.1133 19.5655 15.1616 19.5044 15.2252C19.4432 15.2888 19.3979 15.3659 19.372 15.4503C19.2873 15.7281 19.1756 15.9969 19.0386 16.253C18.996 16.3311 18.9725 16.4182 18.9701 16.5072C18.9676 16.5962 18.9863 16.6844 19.0246 16.7648L19.3766 17.5018C19.1278 17.821 18.8416 18.1027 18.5269 18.3562L17.7851 18.0042C17.7058 17.966 17.6186 17.947 17.5305 17.9486C17.4425 17.9503 17.356 17.9725 17.2781 18.0136C17.0227 18.1533 16.7536 18.2665 16.4752 18.3516C16.3905 18.3764 16.3128 18.4208 16.2484 18.4812C16.184 18.5415 16.1347 18.6161 16.1044 18.699L15.8321 19.469C15.6302 19.4924 15.4284 19.5111 15.2264 19.5111C15.0292 19.5111 14.8274 19.4924 14.6255 19.4736L14.3532 18.699C14.3229 18.6161 14.2736 18.5415 14.2092 18.4812C14.1448 18.4208 14.0671 18.3764 13.9824 18.3516C13.704 18.2665 13.4349 18.1533 13.1795 18.0136C13.1016 17.9725 13.0151 17.9503 12.9271 17.9486C12.839 17.947 12.7518 17.966 12.6725 18.0042L11.9307 18.3562C11.6162 18.1029 11.3298 17.8212 11.081 17.5066L11.433 16.7648C11.4705 16.6851 11.4888 16.5977 11.4863 16.5096C11.4839 16.4216 11.4609 16.3353 11.419 16.2578C11.282 16 11.1703 15.7296 11.0856 15.4503C11.0604 15.365 11.0153 15.287 10.9541 15.2225C10.893 15.1581 10.8174 15.109 10.7336 15.0793L9.96366 14.807C9.9401 14.6052 9.92611 14.408 9.92611 14.2061C9.92611 14.0041 9.94028 13.8023 9.96366 13.6051L10.7336 13.3328C10.8174 13.3032 10.8929 13.2541 10.9541 13.1897C11.0153 13.1252 11.0603 13.0472 11.0856 12.962C11.1701 12.6803 11.2782 12.4128 11.419 12.1545C11.4609 12.077 11.484 11.9908 11.4864 11.9027C11.4889 11.8146 11.4707 11.7272 11.4332 11.6475L11.081 10.9057C11.3304 10.5905 11.6155 10.3054 11.9307 10.0559L12.6678 10.4081C12.7482 10.4463 12.8364 10.4649 12.9254 10.4625C13.0143 10.46 13.1014 10.4365 13.1795 10.3939C13.4368 10.2561 13.7073 10.1444 13.987 10.0607C14.0714 10.0348 14.1485 9.9894 14.2121 9.92823C14.2758 9.86705 14.3242 9.79178 14.3534 9.70847L14.6304 8.93853C14.8267 8.91433 15.0241 8.90179 15.2218 8.90097ZM2.90273 11.3752C3.2172 11.6099 3.57878 11.8165 3.98714 11.9995C5.25472 12.5723 6.93084 12.9009 8.78997 12.9057H8.96359C8.9291 12.9636 8.90528 13.0272 8.89326 13.0935C8.82753 13.4597 8.79936 13.8305 8.79936 14.2061C8.79936 14.577 8.82753 14.9526 8.89326 15.3188C8.90999 15.4176 8.95273 15.51 9.0171 15.5868C9.08146 15.6635 9.16512 15.7217 9.25945 15.7553L10.1045 16.0558C10.1561 16.2014 10.2172 16.3423 10.2829 16.4831C10.2003 16.4466 10.1101 16.4305 10.02 16.4362C9.61112 16.4744 9.20064 16.4932 8.78997 16.4925C7.07169 16.4925 5.52241 16.1685 4.45201 15.685C3.9168 15.4457 3.50366 15.1592 3.24554 14.8869C3.04358 14.6709 2.94029 14.4785 2.90734 14.286L2.90273 11.3752ZM2.90734 16.0887C3.22198 16.3235 3.58339 16.5301 3.98714 16.7131C5.25012 17.2858 6.93084 17.6145 8.78997 17.6192C9.15616 17.6192 9.51757 17.6051 9.86977 17.5817C9.86917 17.6935 9.90185 17.803 9.96366 17.8961C10.3908 18.5112 10.926 19.0417 11.5411 19.4736C11.6225 19.5304 11.7175 19.5646 11.8165 19.5728C11.9154 19.5811 12.0148 19.563 12.1045 19.5205L12.912 19.1356C13.0668 19.2061 13.2218 19.2718 13.3815 19.3281L13.6631 20.1215C12.6115 20.7272 10.8227 21.206 8.79936 21.206C7.17497 21.206 5.68664 20.9196 4.62102 20.4737C3.574 20.037 3.00602 19.4596 2.91212 19.0089L2.90734 16.0887Z" fill="white"/>
<path d="M15.2216 10.6663C13.278 10.6663 11.6865 12.2531 11.6865 14.2015C11.6865 16.1451 13.278 17.732 15.2216 17.732C17.1652 17.732 18.7568 16.1451 18.7568 14.2015C18.7568 12.2531 17.1652 10.6663 15.2216 10.6663ZM15.2216 11.793C15.5381 11.7921 15.8518 11.8537 16.1444 11.9744C16.437 12.0951 16.7029 12.2725 16.9267 12.4964C17.1506 12.7202 17.328 12.9861 17.4487 13.2787C17.5694 13.5713 17.631 13.885 17.6301 14.2015C17.6301 15.5348 16.5549 16.6052 15.2216 16.6052C13.8837 16.6052 12.8133 15.5348 12.8133 14.2015C12.8119 13.8849 12.8733 13.5711 12.9939 13.2783C13.1144 12.9855 13.2918 12.7194 13.5157 12.4955C13.7396 12.2716 14.0056 12.0942 14.2984 11.9737C14.5912 11.8531 14.9049 11.7917 15.2216 11.793Z" fill="white"/>
</svg>
