<svg width="36" height="35" viewBox="0 0 36 35" fill="none" xmlns="http://www.w3.org/2000/svg">
<path fill-rule="evenodd" clip-rule="evenodd" d="M10.6114 7.51068C11.3278 7.03199 12.1701 6.77649 13.0317 6.77649C13.5849 6.77649 14.0334 7.22494 14.0334 7.77812C14.0334 8.33131 13.5849 8.77976 13.0317 8.77976C12.5663 8.77976 12.1114 8.91777 11.7244 9.17634C11.3374 9.43491 11.0358 9.80242 10.8577 10.2324C10.6796 10.6624 10.633 11.1355 10.7238 11.592C10.8146 12.0485 11.0387 12.4678 11.3678 12.7969C11.6969 13.126 12.1162 13.3501 12.5727 13.4409C13.0291 13.5317 13.5023 13.4851 13.9323 13.307C14.3622 13.1289 14.7298 12.8273 14.9883 12.4403C15.2469 12.0533 15.3849 11.5983 15.3849 11.1329C15.3849 10.5797 15.8333 10.1313 16.3865 10.1313C16.9397 10.1313 17.3882 10.5797 17.3882 11.1329C17.3882 11.9945 17.1327 12.8368 16.654 13.5532C16.1753 14.2696 15.4949 14.828 14.6989 15.1577C13.9028 15.4875 13.0269 15.5737 12.1818 15.4057C11.3368 15.2376 10.5605 14.8227 9.95127 14.2134C9.34201 13.6041 8.9271 12.8279 8.759 11.9828C8.59091 11.1378 8.67718 10.2618 9.00691 9.46579C9.33664 8.66976 9.89501 7.98937 10.6114 7.51068Z" fill="#4D8C9C"/>
<path fill-rule="evenodd" clip-rule="evenodd" d="M34.7949 12.5848C35.3402 12.5848 35.7822 13.036 35.7822 13.5926V22.031C35.7822 26.3477 34.9472 29.6316 32.8235 31.8116C30.6985 33.993 27.496 34.8511 23.2879 34.8511H13.4249C9.21819 34.8511 6.01567 33.9933 3.89036 31.8122C1.76635 29.6324 0.930664 26.3485 0.930664 22.031V18.6381C0.930664 18.0816 1.37266 17.6304 1.91788 17.6304C2.46311 17.6304 2.9051 18.0816 2.9051 18.6381V22.031C2.9051 26.1518 3.71478 28.774 5.29021 30.3908C6.86435 32.0063 9.41535 32.8355 13.4249 32.8355H23.2879C27.2988 32.8355 29.8497 32.006 31.4235 30.3904C32.9986 28.7735 33.8077 26.1512 33.8077 22.031V13.5926C33.8077 13.036 34.2497 12.5848 34.7949 12.5848Z" fill="#4D8C9C"/>
<path fill-rule="evenodd" clip-rule="evenodd" d="M3.93145 2.97716C6.08503 0.840535 9.33016 0 13.596 0H20.2651C20.815 0 21.2607 0.442234 21.2607 0.987758C21.2607 1.53328 20.815 1.97552 20.2651 1.97552H13.596C9.52663 1.97552 6.93692 2.78915 5.33943 4.37406C3.74194 5.95898 2.92185 8.52831 2.92185 12.5656C2.92185 13.1111 2.47611 13.5534 1.92626 13.5534C1.37641 13.5534 0.930664 13.1111 0.930664 12.5656C0.930664 8.33339 1.77787 5.11379 3.93145 2.97716Z" fill="#4D8C9C"/>
<path fill-rule="evenodd" clip-rule="evenodd" d="M23.1973 5.80904C23.1973 5.27437 23.6612 4.84094 24.2335 4.84094H33.7782C34.3505 4.84094 34.8144 5.27437 34.8144 5.80904C34.8144 6.34371 34.3505 6.77714 33.7782 6.77714H24.2335C23.6612 6.77714 23.1973 6.34371 23.1973 5.80904Z" fill="#4D8C9C"/>
<path fill-rule="evenodd" clip-rule="evenodd" d="M29.0057 0C29.5404 0 29.9738 0.463949 29.9738 1.03626V10.5809C29.9738 11.1532 29.5404 11.6172 29.0057 11.6172C28.471 11.6172 28.0376 11.1532 28.0376 10.5809V1.03626C28.0376 0.463949 28.471 0 29.0057 0Z" fill="#4D8C9C"/>
<path fill-rule="evenodd" clip-rule="evenodd" d="M28.0856 19.0473L21.2341 24.9783L21.2159 24.9936C20.3829 25.6804 19.3377 26.0559 18.2591 26.0559C17.1804 26.0559 16.1353 25.6804 15.3023 24.9936C15.2933 24.9862 15.2845 24.9787 15.2758 24.971L14.7469 24.5027C14.304 24.1453 13.76 23.9365 13.1919 23.9062C12.6202 23.8756 12.0537 24.0273 11.5735 24.3393L3.44518 29.8407C2.99147 30.1478 2.37526 30.0282 2.06884 29.5735C1.76241 29.1188 1.88181 28.5013 2.33551 28.1942L10.4842 22.679C11.318 22.134 12.3033 21.869 13.2974 21.9221C14.2916 21.9752 15.2431 22.3439 16.0144 22.9747C16.0244 22.9829 16.0342 22.9912 16.0439 22.9998L16.5744 23.4695C17.0505 23.8572 17.6453 24.069 18.2591 24.069C18.8746 24.069 19.471 23.856 19.9478 23.4663L26.7993 17.5353L26.8175 17.5199C27.6505 16.8331 28.6956 16.4576 29.7743 16.4576C30.8529 16.4576 31.8981 16.8331 32.731 17.5199L32.7493 17.5353L35.439 19.8639C35.8534 20.2226 35.8991 20.8499 35.5412 21.2651C35.1833 21.6803 34.5572 21.7261 34.1429 21.3674L31.4629 19.0472C30.9862 18.6575 30.3897 18.4445 29.7743 18.4445C29.1588 18.4445 28.5623 18.6575 28.0856 19.0473Z" fill="#4D8C9C"/>
</svg>
