<svg width="20" height="20" viewBox="0 0 20 20" fill="none" xmlns="http://www.w3.org/2000/svg">
<g clip-path="url(#clip0_114_403)">
<path d="M17.1917 4.33088C17.0141 4.10457 16.825 3.88761 16.625 3.68088C16.7917 3.60588 16.9417 3.52254 17.0917 3.43921L17.5083 4.16421C17.4083 4.22254 17.3 4.28088 17.1917 4.33088Z" fill="#4D8C9C"/>
<path d="M14.2 4.52258C15.0917 4.31424 15.9167 4.03091 16.625 3.68091C16.825 3.88924 17.0167 4.10591 17.1917 4.33091C16.3917 4.73924 15.4583 5.08091 14.4417 5.33091C14.3667 5.04757 14.2917 4.78091 14.2 4.52258Z" fill="#4D8C9C"/>
<path d="M15 9.9976C15 10.1476 15 10.2976 14.9917 10.4393C14.975 10.6726 14.7667 10.8393 14.55 10.8309C14.4397 10.8239 14.3366 10.7735 14.2632 10.6907C14.1899 10.608 14.1522 10.4997 14.1583 10.3893C14.1667 10.2643 14.1667 10.1309 14.1667 9.9976C14.1667 8.3726 13.9667 6.83927 13.6083 5.4976C13.8917 5.4476 14.1667 5.38927 14.4417 5.33093C14.8 6.71427 15 8.2976 15 9.9976Z" fill="#4D8C9C"/>
<path d="M14.4417 5.33092C14.1667 5.38925 13.8917 5.44758 13.6083 5.49758C13.5417 5.22258 13.4583 4.95592 13.375 4.69758C13.6583 4.64758 13.9333 4.58925 14.2 4.52258C14.2917 4.78092 14.3667 5.04758 14.4417 5.33092Z" fill="#4D8C9C"/>
<path d="M13.375 4.69757C12.6917 2.61423 11.6167 1.1559 10.4167 0.8809V0.839233C11.0834 0.872567 11.7334 0.972567 12.3584 1.14757C13.1167 1.9309 13.75 3.09757 14.2 4.52257C13.9334 4.58923 13.6584 4.64757 13.375 4.69757Z" fill="#4D8C9C"/>
<path d="M16.625 3.68089C15.4594 2.46445 13.9843 1.58863 12.3583 1.14756C11.6666 0.414225 10.8666 0.00589193 10.0166 -0.00244141C14.6666 0.00589193 18.7666 3.30589 19.7666 7.84756C19.8166 8.07256 19.675 8.28923 19.45 8.33923C19.225 8.38923 19 8.24756 18.95 8.02256C18.65 6.64756 18.0333 5.38923 17.1916 4.33089C17.3 4.28089 17.4083 4.22256 17.5083 4.16423L17.0916 3.43923C16.9416 3.52256 16.7916 3.60589 16.625 3.68089ZM13.6083 5.49756C12.6 5.69756 11.525 5.80589 10.4166 5.82256V4.98923C11.4416 4.97256 12.4416 4.87256 13.375 4.69756C13.4583 4.95589 13.5416 5.22256 13.6083 5.49756ZM9.99998 5.83089C10.1416 5.83089 10.2833 5.83089 10.4166 5.82256V8.56423C10.4166 8.79756 10.2333 8.98089 9.99998 8.98089C9.76665 8.98089 9.58331 8.79756 9.58331 8.56423V5.82256C9.71665 5.83089 9.85831 5.83089 9.99998 5.83089Z" fill="#4D8C9C"/>
<path d="M9.99998 5.83092C9.85831 5.83092 9.71665 5.83092 9.58331 5.82259V4.98926C9.71665 4.99759 9.85831 4.99759 9.99998 4.99759C10.1416 4.99759 10.2833 4.99759 10.4166 4.98926V5.82259C10.2833 5.83092 10.1416 5.83092 9.99998 5.83092Z" fill="#4D8C9C"/>
<path d="M10.4166 0.880933V4.98927C10.2833 4.9976 10.1416 4.9976 9.99998 4.9976C9.85831 4.9976 9.71665 4.9976 9.58331 4.98927V0.880933C9.71665 0.847599 9.85831 0.830933 9.99998 0.830933C10.0666 0.830933 10.1416 0.830933 10.2083 0.839266C10.2833 0.847599 10.35 0.864266 10.4166 0.880933Z" fill="#4D8C9C"/>
<path d="M10.4167 0.839275V0.880942C10.35 0.864275 10.2833 0.847608 10.2083 0.839275C10.275 0.830942 10.35 0.839275 10.4167 0.839275ZM10.1833 19.4309C10.2083 19.4809 10.2167 19.5309 10.2167 19.5893C10.2167 19.5976 10.2167 19.6059 10.2083 19.6143C10.2167 19.5476 10.2 19.4893 10.1833 19.4309Z" fill="#4D8C9C"/>
<path d="M10.1666 19.7643C10.1833 19.7226 10.2 19.6643 10.2083 19.6143C10.2083 19.6726 10.1916 19.7226 10.1666 19.7643ZM10.1833 19.4226C10.1583 19.3809 10.1333 19.3393 10.1 19.2976C10.1416 19.3309 10.1666 19.3726 10.1833 19.4226ZM9.99998 0.830933C9.85831 0.830933 9.72498 0.830933 9.58331 0.839266V0.622599C9.58331 0.397599 9.76665 0.205933 9.99998 0.205933C10.2333 0.205933 10.4166 0.397599 10.4166 0.622599V0.839266C10.35 0.839266 10.275 0.830933 10.2083 0.839266C10.1416 0.830933 10.0666 0.830933 9.99998 0.830933ZM10.0333 19.2393C10.0666 19.2559 10.0833 19.2809 10.1 19.2976C10.0796 19.2761 10.0573 19.2566 10.0333 19.2393ZM10.1666 19.7643C10.125 19.8643 10.0416 19.9393 9.94165 19.9643C10.0378 19.926 10.1174 19.8552 10.1666 19.7643Z" fill="#4D8C9C"/>
<path d="M9.58331 0.839266C9.72498 0.830933 9.85831 0.830933 9.99998 0.830933C9.85831 0.830933 9.71665 0.847599 9.58331 0.880933V0.839266Z" fill="#4D8C9C"/>
<path d="M10.1666 19.7642C10.1174 19.8552 10.0378 19.926 9.94165 19.9642C9.89998 19.9809 9.84998 19.9892 9.79165 19.9892H9.74998C8.99165 19.9142 8.27498 19.5309 7.64165 18.8559C8.33331 19.0392 9.05831 19.1476 9.80831 19.1642H9.84998C9.89165 19.1726 9.93331 19.1809 9.96665 19.1976C9.99165 19.2059 10.0083 19.2226 10.0333 19.2392C10.0583 19.2559 10.0833 19.2809 10.1 19.2976C10.1333 19.3392 10.1583 19.3809 10.1833 19.4226C10.1833 19.4226 10.175 19.4309 10.1833 19.4309C10.2 19.4892 10.2166 19.5476 10.2083 19.6142C10.2 19.6642 10.1833 19.7226 10.1666 19.7642ZM9.99998 0.205892C9.76665 0.205892 9.58331 0.397559 9.58331 0.622559V0.839225C8.91665 0.872559 8.27498 0.972559 7.64998 1.13923C8.34998 0.405892 9.14165 -0.00244141 9.99998 -0.00244141H10.0166C10.8666 0.00589193 11.6666 0.414225 12.3583 1.14756C11.7333 0.972559 11.0833 0.872559 10.4166 0.839225V0.622559C10.4166 0.397559 10.2333 0.205892 9.99998 0.205892ZM8.96665 9.99756C8.96665 10.2309 8.78331 10.4142 8.54998 10.4142H5.84165C5.83331 10.2809 5.83331 10.1392 5.83331 9.99756C5.83331 9.85589 5.83331 9.72256 5.84165 9.58089H8.54998C8.78331 9.58089 8.96665 9.77256 8.96665 9.99756ZM8.50831 14.1642L11.25 16.9142V15.4142C11.25 15.1892 11.4333 14.9976 11.6666 14.9976H15.4166C16.9583 14.9976 18.2916 14.0642 18.8666 12.7226C18.375 13.1059 17.75 13.3309 17.0833 13.3309H11.6666C11.4333 13.3309 11.25 13.1476 11.25 12.9142V11.4226L8.50831 14.1642ZM7.62498 14.4642C7.45831 14.2976 7.45831 14.0392 7.62498 13.8726L11.375 10.1226C11.4331 10.0651 11.5068 10.026 11.587 10.0101C11.6672 9.99432 11.7503 10.0025 11.8258 10.0336C11.9014 10.0647 11.9661 10.1174 12.0119 10.1851C12.0577 10.2528 12.0825 10.3325 12.0833 10.4142V12.4976H17.0833C17.6358 12.4976 18.1658 12.2781 18.5565 11.8874C18.9472 11.4967 19.1666 10.9668 19.1666 10.4142C19.1666 10.1892 19.35 9.99756 19.5833 9.99756C19.8166 9.99756 20 10.1892 20 10.4142V11.2476C20 13.7809 17.9416 15.8309 15.4166 15.8309H12.0833V17.9142C12.0833 18.0892 11.9833 18.2392 11.825 18.3059C11.775 18.3226 11.7166 18.3309 11.6666 18.3309C11.5579 18.3315 11.4533 18.2897 11.375 18.2142L7.62498 14.4642ZM6.62498 4.69756C7.55831 4.87256 8.55831 4.97256 9.58331 4.98923V5.82256C8.51183 5.81025 7.44362 5.70147 6.39165 5.49756C6.45831 5.22256 6.54165 4.95589 6.62498 4.69756Z" fill="#4D8C9C"/>
<path d="M6.96665 16.2059C7.69999 17.9642 8.73332 19.0392 9.80832 19.1642C9.05832 19.1476 8.33332 19.0392 7.64165 18.8559C7.09165 18.2809 6.60832 17.4976 6.19999 16.5309C6.17612 16.4802 6.16274 16.4251 6.16065 16.3691C6.15855 16.313 6.1678 16.2572 6.18782 16.2048C6.20784 16.1524 6.23822 16.1046 6.27716 16.0642C6.31609 16.0239 6.36277 15.9918 6.4144 15.9699C6.46603 15.948 6.52154 15.9368 6.57762 15.9369C6.6337 15.937 6.68918 15.9484 6.74074 15.9704C6.79231 15.9924 6.8389 16.0246 6.87772 16.0651C6.91653 16.1056 6.94678 16.1535 6.96665 16.2059ZM9.58332 0.8809C8.38332 1.1559 7.30832 2.61423 6.62499 4.69757C6.34165 4.64757 6.06665 4.58923 5.79999 4.52257C6.25832 3.08923 6.89165 1.92257 7.64999 1.13923C8.27499 0.972567 8.91665 0.872567 9.58332 0.839233V0.8809Z" fill="#4D8C9C"/>
<path d="M5.80003 4.52258C6.0667 4.58925 6.34169 4.64758 6.62503 4.69758C6.54169 4.95592 6.45836 5.22258 6.3917 5.49758C6.10836 5.44758 5.83336 5.38925 5.55836 5.33092C5.63336 5.04758 5.70836 4.78092 5.80003 4.52258ZM6.07503 13.0226C6.11669 13.2476 5.96669 13.4643 5.74169 13.5059H5.6667C5.4667 13.5059 5.29169 13.3643 5.25836 13.1643C5.10836 12.3059 5.02503 11.3809 5.00836 10.4142H5.8417C5.85836 11.3309 5.93336 12.2059 6.07503 13.0226Z" fill="#4D8C9C"/>
<path d="M6.39165 5.49758C6.04545 6.83175 5.86079 8.20268 5.84165 9.58091H5.00832C5.03332 8.03924 5.23332 6.59757 5.55832 5.33091C5.83332 5.38924 6.10832 5.44758 6.39165 5.49758ZM5.83332 9.99758C5.83332 10.1392 5.83332 10.2809 5.84165 10.4142H5.00832C4.99999 10.2809 4.99999 10.1392 4.99999 9.99758C4.99999 9.85591 4.99999 9.72258 5.00832 9.58091H5.84165C5.83332 9.72258 5.83332 9.85591 5.83332 9.99758ZM5.79999 4.52258C5.70832 4.78091 5.63332 5.04757 5.55832 5.33091C4.53332 5.08091 3.59999 4.74758 2.79999 4.33091C2.97499 4.10591 3.16665 3.88924 3.36665 3.68091C4.07499 4.02257 4.89999 4.30591 5.79999 4.52258Z" fill="#4D8C9C"/>
<path d="M5.00831 9.58088C4.99998 9.72254 4.99998 9.85588 4.99998 9.99754C4.99998 10.1392 4.99998 10.2809 5.00831 10.4142H0.841646C0.833313 10.2725 0.833313 10.1392 0.833313 9.99754C0.833313 9.85588 0.833313 9.71421 0.841646 9.58088H5.00831ZM5.69165 15.4975C4.82498 15.7142 4.04998 15.9809 3.38331 16.3142C3.18331 16.1059 2.99165 15.8892 2.81665 15.6725C3.58331 15.2642 4.48331 14.9392 5.49165 14.6892C5.71665 14.6309 5.94165 14.7725 5.99998 14.9892C6.04998 15.2142 5.91665 15.4392 5.69165 15.4975ZM3.38331 16.3142C4.52498 17.5142 5.99165 18.4142 7.64165 18.8559C8.27498 19.5309 8.99165 19.9142 9.74998 19.9892H9.79165C9.84998 19.9892 9.89998 19.9809 9.94165 19.9642C9.89998 19.9892 9.84998 19.9975 9.79998 19.9975H9.79165C6.87498 19.9392 4.24998 18.6059 2.45831 16.5309C2.52498 16.5892 2.61665 16.6142 2.69998 16.6142C2.77498 16.6142 2.84165 16.5975 2.90831 16.5642C3.05831 16.4809 3.21665 16.3892 3.38331 16.3142ZM2.90831 3.43921C3.04998 3.52254 3.20831 3.59754 3.36665 3.68088C3.16665 3.88921 2.97498 4.10588 2.79998 4.33088C2.69165 4.27254 2.59165 4.22254 2.49165 4.16421L2.90831 3.43921Z" fill="#4D8C9C"/>
<path d="M2.81665 15.6726C2.99165 15.8893 3.18331 16.1059 3.38331 16.3143C3.21665 16.3893 3.05831 16.4809 2.90831 16.5643C2.84165 16.5976 2.77498 16.6143 2.69998 16.6143C2.61665 16.6143 2.52498 16.5893 2.45831 16.5309C2.42498 16.4976 2.38331 16.4559 2.34165 16.4059C2.34165 16.3976 2.33331 16.3976 2.33331 16.3893C2.28235 16.2951 2.27038 16.1848 2.29999 16.0819C2.32961 15.979 2.39843 15.8919 2.49165 15.8393C2.59998 15.7809 2.70831 15.7226 2.81665 15.6726Z" fill="#4D8C9C"/>
<path d="M2.34165 16.4059C2.38331 16.4559 2.42498 16.4976 2.45831 16.5309C2.40922 16.5001 2.36901 16.457 2.34165 16.4059ZM0.833313 9.9976C0.833313 10.1393 0.833313 10.2726 0.841646 10.4143H0.62498C0.391646 10.4143 0.208313 10.2309 0.208313 9.9976C0.208313 9.7726 0.391646 9.58093 0.62498 9.58093H0.841646C0.833313 9.71427 0.833313 9.85593 0.833313 9.9976Z" fill="#4D8C9C"/>
<path d="M0 9.99756C0 4.48922 4.48333 -0.00244141 10 -0.00244141C9.14167 -0.00244141 8.35 0.405892 7.65 1.13923C5.99167 1.57256 4.51667 2.47256 3.36667 3.68089C3.20833 3.59756 3.05 3.52256 2.90833 3.43922L2.49167 4.16423C2.59167 4.22256 2.69167 4.27256 2.8 4.33089C1.61277 5.8322 0.927684 7.66882 0.841667 9.58089H0.625C0.391667 9.58089 0.208333 9.77256 0.208333 9.99756C0.208333 10.2309 0.391667 10.4142 0.625 10.4142H0.841667C0.933333 12.3809 1.65833 14.2059 2.81667 15.6726C2.70833 15.7226 2.6 15.7809 2.49167 15.8392C2.39845 15.8919 2.32963 15.979 2.30001 16.0818C2.2704 16.1847 2.28237 16.2951 2.33333 16.3892C0.883333 14.6559 0 12.4226 0 9.99756Z" fill="#4D8C9C"/>
</g>
<defs>
<clipPath id="clip0_114_403">
<rect width="20" height="20" fill="white"/>
</clipPath>
</defs>
</svg>
