<svg width="20" height="15" viewBox="0 0 20 15" fill="none" xmlns="http://www.w3.org/2000/svg">
<path d="M18.125 0.600001H6.04167C5.70189 0.600001 5.42652 0.712823 5.23634 0.903004C5.04615 1.09318 4.93333 1.36856 4.93333 1.70833C4.93333 2.04811 5.04615 2.32349 5.23634 2.51367C5.42652 2.70385 5.70189 2.81667 6.04167 2.81667H18.125C18.4648 2.81667 18.7401 2.70385 18.9303 2.51367C19.1205 2.32348 19.2333 2.04811 19.2333 1.70833C19.2333 1.36856 19.1205 1.09318 18.9303 0.903004C18.7401 0.712823 18.4648 0.600001 18.125 0.600001ZM1.20833 0.600001C1.03875 0.600001 0.901904 0.628146 0.780718 0.682007C0.659097 0.73606 0.548141 0.818281 0.433211 0.93321C0.318281 1.04814 0.23606 1.1591 0.182006 1.28072C0.128145 1.40191 0.1 1.53875 0.1 1.70833C0.1 1.87792 0.128145 2.01476 0.182006 2.13595C0.23606 2.25757 0.318281 2.36853 0.433211 2.48346C0.877492 2.92774 1.53917 2.92774 1.98346 2.48346C2.09839 2.36853 2.18061 2.25757 2.23466 2.13595C2.28852 2.01476 2.31667 1.87792 2.31667 1.70833C2.31667 1.53875 2.28852 1.40191 2.23466 1.28072C2.18061 1.1591 2.09839 1.04814 1.98346 0.93321C1.86853 0.818281 1.75757 0.73606 1.63595 0.682007C1.51476 0.628146 1.37791 0.600001 1.20833 0.600001ZM18.125 6.64167H6.04167C5.70189 6.64167 5.42652 6.75449 5.23634 6.94467C5.04615 7.13485 4.93333 7.41023 4.93333 7.75C4.93333 8.08978 5.04615 8.36515 5.23634 8.55533C5.42652 8.74551 5.70189 8.85833 6.04167 8.85833H18.125C18.4648 8.85833 18.7401 8.74551 18.9303 8.55533C19.1205 8.36515 19.2333 8.08978 19.2333 7.75C19.2333 7.41023 19.1205 7.13485 18.9303 6.94467C18.7401 6.75449 18.4648 6.64167 18.125 6.64167ZM1.20833 6.64167C1.03875 6.64167 0.901905 6.66981 0.780718 6.72367C0.659097 6.77773 0.548141 6.85995 0.433211 6.97488C0.318281 7.08981 0.23606 7.20076 0.182006 7.32239C0.128145 7.44357 0.1 7.58042 0.1 7.75C0.1 7.91958 0.128145 8.05643 0.182006 8.17762C0.23606 8.29924 0.318281 8.41019 0.433211 8.52512C0.877492 8.9694 1.53917 8.9694 1.98346 8.52512C2.09839 8.41019 2.18061 8.29924 2.23466 8.17762C2.28852 8.05643 2.31667 7.91958 2.31667 7.75C2.31667 7.58042 2.28852 7.44357 2.23466 7.32239C2.18061 7.20076 2.09839 7.08981 1.98346 6.97488C1.86853 6.85995 1.75757 6.77773 1.63595 6.72367C1.51476 6.66981 1.37791 6.64167 1.20833 6.64167ZM18.125 12.6833H6.04167C5.70189 12.6833 5.42652 12.7962 5.23634 12.9863C5.04615 13.1765 4.93333 13.4519 4.93333 13.7917C4.93333 14.1314 5.04615 14.4068 5.23634 14.597C5.42652 14.7872 5.70189 14.9 6.04167 14.9H18.125C18.4648 14.9 18.7401 14.7872 18.9303 14.597C19.1205 14.4068 19.2333 14.1314 19.2333 13.7917C19.2333 13.4519 19.1205 13.1765 18.9303 12.9863C18.7401 12.7962 18.4648 12.6833 18.125 12.6833ZM1.20833 12.6833C1.03875 12.6833 0.901905 12.7115 0.780718 12.7653C0.659097 12.8194 0.548141 12.9016 0.433211 13.0165C0.318281 13.1315 0.23606 13.2424 0.182006 13.3641C0.128145 13.4852 0.1 13.6221 0.1 13.7917C0.1 13.9612 0.128145 14.0981 0.182006 14.2193C0.23606 14.3409 0.318281 14.4519 0.433211 14.5668C0.877492 15.0111 1.53917 15.0111 1.98346 14.5668C2.09839 14.4519 2.18061 14.3409 2.23466 14.2193C2.28852 14.0981 2.31667 13.9612 2.31667 13.7917C2.31667 13.6221 2.28852 13.4852 2.23466 13.3641C2.18061 13.2424 2.09839 13.1315 1.98346 13.0165C1.86853 12.9016 1.75757 12.8194 1.63595 12.7653C1.51476 12.7115 1.37791 12.6833 1.20833 12.6833Z" fill="white" stroke="#4D8C9C" stroke-width="0.2"/>
</svg>
