<svg width="23" height="20" viewBox="0 0 23 20" fill="none" xmlns="http://www.w3.org/2000/svg">
<mask id="path-1-outside-1_114_430" maskUnits="userSpaceOnUse" x="0" y="0" width="23" height="20" fill="black">
<rect fill="white" width="23" height="20"/>
<path fill-rule="evenodd" clip-rule="evenodd" d="M20.053 15.86V18.4099C20.053 18.8071 19.7304 19.1298 19.3331 19.1298H1.71849C1.32356 19.1298 1 18.8075 1 18.4099V4.98827C1 4.59299 1.32316 4.26979 1.71849 4.26979H3.00582V1.71853C3.00582 1.32321 3.32903 1 3.72431 1H19.2624C19.4601 1 19.6312 1.07181 19.7701 1.21076L21.8481 3.2887C21.987 3.42765 22.0588 3.59878 22.0588 3.79646V15.1401C22.0588 15.5373 21.7362 15.86 21.3389 15.86H20.053ZM3.70342 4.26979H17.2565C17.4542 4.26979 17.6254 4.34159 17.7643 4.48055L19.8423 6.55848C19.9812 6.69744 20.053 6.86857 20.053 7.06625V15.1624H21.3389C21.3419 15.1624 21.3448 15.1618 21.3475 15.1607C21.3502 15.1596 21.3526 15.1579 21.3547 15.1559C21.3568 15.1538 21.3584 15.1513 21.3595 15.1486C21.3606 15.1459 21.3612 15.143 21.3612 15.1401V3.99275H19.6004C19.3076 3.99275 19.0661 3.75129 19.0661 3.45839V1.6976H3.72431C3.71877 1.69762 3.71346 1.69984 3.70955 1.70376C3.70563 1.70768 3.70343 1.71299 3.70342 1.71853V4.26979ZM20.8679 3.29515L19.7637 2.19089V3.29515H20.8679ZM17.0603 4.96739H1.71849C1.71295 4.9674 1.70764 4.9696 1.70373 4.97352C1.69982 4.97743 1.69761 4.98274 1.6976 4.98827V18.4099C1.6976 18.4218 1.70663 18.4322 1.71849 18.4322H19.3331C19.339 18.4322 19.3447 18.4298 19.3489 18.4256C19.3531 18.4215 19.3554 18.4158 19.3554 18.4099V7.26249H17.5946C17.3017 7.26249 17.0603 7.02108 17.0603 6.72817V4.96739ZM18.8621 6.56489L17.7579 5.46068V6.56489H18.8621ZM11.4092 9.2401C11.4092 8.72828 11.9966 8.44715 12.3941 8.7602L12.3942 8.76024L14.9339 10.7616C15.0069 10.8181 15.066 10.8906 15.1067 10.9735C15.1474 11.0564 15.1685 11.1475 15.1685 11.2398C15.1685 11.3321 15.1474 11.4232 15.1067 11.5061C15.066 11.589 15.0069 11.6614 14.9339 11.7179L12.3941 13.7194C11.9966 14.0324 11.4092 13.7513 11.4092 13.2394V12.7598H6.23549C6.14263 12.7597 6.05358 12.7229 5.98791 12.6572C5.92225 12.5915 5.88535 12.5025 5.88534 12.4096V10.07C5.88534 9.97712 5.92223 9.88805 5.9879 9.82238C6.05356 9.7567 6.14262 9.7198 6.23549 9.71979H11.4092V9.2401ZM12.1096 13.052L14.4092 11.2398L12.1096 9.42763V10.07C12.1095 10.1629 12.0726 10.2519 12.007 10.3176C11.9413 10.3832 11.8523 10.4201 11.7594 10.4201H6.58569V12.0594H11.7594C11.8523 12.0594 11.9413 12.0963 12.007 12.162C12.0727 12.2277 12.1096 12.3167 12.1096 12.4096V13.052ZM13.8288 16.296H7.74292C7.67236 16.296 7.60346 16.2745 7.54533 16.2345C7.4872 16.1945 7.44256 16.1379 7.41731 16.072C7.39206 16.0061 7.38739 15.9341 7.40391 15.8655C7.42043 15.7969 7.45736 15.7349 7.50984 15.6877L8.34007 14.9419H6.23549C6.043 14.9419 5.88669 14.7856 5.88669 14.5931C5.88669 14.4006 6.043 14.2443 6.23549 14.2443H9.25031C9.32089 14.2443 9.38981 14.2657 9.44797 14.3057C9.50613 14.3457 9.55078 14.4024 9.57604 14.4683C9.60129 14.5342 9.60596 14.6062 9.58942 14.6748C9.57288 14.7435 9.5359 14.8054 9.48339 14.8526L8.65316 15.5984H13.797L13.5214 15.2972C13.459 15.2289 13.4262 15.1387 13.4303 15.0463C13.4344 14.9539 13.475 14.8669 13.5433 14.8044C13.6115 14.742 13.7018 14.7093 13.7942 14.7134C13.8866 14.7175 13.9736 14.7581 14.0361 14.8263L14.8622 15.7291C14.921 15.7934 14.9537 15.8774 14.9537 15.9646C14.9537 16.0517 14.921 16.1357 14.8622 16.2L14.0678 17.0681C13.9379 17.2101 13.717 17.2199 13.575 17.09C13.5068 17.0275 13.4662 16.9405 13.4621 16.8481C13.458 16.7557 13.4907 16.6654 13.5532 16.5972L13.8288 16.296ZM13.8288 7.80117H6.23549C6.043 7.80117 5.88669 7.64487 5.88669 7.45237C5.88669 7.25983 6.043 7.10357 6.23549 7.10357H13.797L13.5214 6.80238C13.459 6.73412 13.4262 6.64386 13.4303 6.55146C13.4344 6.45905 13.475 6.37205 13.5433 6.30957C13.6115 6.24716 13.7018 6.21441 13.7942 6.21852C13.8866 6.22262 13.9736 6.26324 14.0361 6.33146L14.8622 7.23424C14.921 7.29853 14.9537 7.38254 14.9537 7.4697C14.9537 7.55687 14.921 7.64087 14.8622 7.70516L14.0678 8.57329C14.0053 8.64149 13.9183 8.6821 13.8259 8.6862C13.7335 8.6903 13.6433 8.65754 13.575 8.59513C13.433 8.4652 13.4232 8.24437 13.5532 8.10236L13.8288 7.80117Z"/>
</mask>
<path fill-rule="evenodd" clip-rule="evenodd" d="M20.053 15.86V18.4099C20.053 18.8071 19.7304 19.1298 19.3331 19.1298H1.71849C1.32356 19.1298 1 18.8075 1 18.4099V4.98827C1 4.59299 1.32316 4.26979 1.71849 4.26979H3.00582V1.71853C3.00582 1.32321 3.32903 1 3.72431 1H19.2624C19.4601 1 19.6312 1.07181 19.7701 1.21076L21.8481 3.2887C21.987 3.42765 22.0588 3.59878 22.0588 3.79646V15.1401C22.0588 15.5373 21.7362 15.86 21.3389 15.86H20.053ZM3.70342 4.26979H17.2565C17.4542 4.26979 17.6254 4.34159 17.7643 4.48055L19.8423 6.55848C19.9812 6.69744 20.053 6.86857 20.053 7.06625V15.1624H21.3389C21.3419 15.1624 21.3448 15.1618 21.3475 15.1607C21.3502 15.1596 21.3526 15.1579 21.3547 15.1559C21.3568 15.1538 21.3584 15.1513 21.3595 15.1486C21.3606 15.1459 21.3612 15.143 21.3612 15.1401V3.99275H19.6004C19.3076 3.99275 19.0661 3.75129 19.0661 3.45839V1.6976H3.72431C3.71877 1.69762 3.71346 1.69984 3.70955 1.70376C3.70563 1.70768 3.70343 1.71299 3.70342 1.71853V4.26979ZM20.8679 3.29515L19.7637 2.19089V3.29515H20.8679ZM17.0603 4.96739H1.71849C1.71295 4.9674 1.70764 4.9696 1.70373 4.97352C1.69982 4.97743 1.69761 4.98274 1.6976 4.98827V18.4099C1.6976 18.4218 1.70663 18.4322 1.71849 18.4322H19.3331C19.339 18.4322 19.3447 18.4298 19.3489 18.4256C19.3531 18.4215 19.3554 18.4158 19.3554 18.4099V7.26249H17.5946C17.3017 7.26249 17.0603 7.02108 17.0603 6.72817V4.96739ZM18.8621 6.56489L17.7579 5.46068V6.56489H18.8621ZM11.4092 9.2401C11.4092 8.72828 11.9966 8.44715 12.3941 8.7602L12.3942 8.76024L14.9339 10.7616C15.0069 10.8181 15.066 10.8906 15.1067 10.9735C15.1474 11.0564 15.1685 11.1475 15.1685 11.2398C15.1685 11.3321 15.1474 11.4232 15.1067 11.5061C15.066 11.589 15.0069 11.6614 14.9339 11.7179L12.3941 13.7194C11.9966 14.0324 11.4092 13.7513 11.4092 13.2394V12.7598H6.23549C6.14263 12.7597 6.05358 12.7229 5.98791 12.6572C5.92225 12.5915 5.88535 12.5025 5.88534 12.4096V10.07C5.88534 9.97712 5.92223 9.88805 5.9879 9.82238C6.05356 9.7567 6.14262 9.7198 6.23549 9.71979H11.4092V9.2401ZM12.1096 13.052L14.4092 11.2398L12.1096 9.42763V10.07C12.1095 10.1629 12.0726 10.2519 12.007 10.3176C11.9413 10.3832 11.8523 10.4201 11.7594 10.4201H6.58569V12.0594H11.7594C11.8523 12.0594 11.9413 12.0963 12.007 12.162C12.0727 12.2277 12.1096 12.3167 12.1096 12.4096V13.052ZM13.8288 16.296H7.74292C7.67236 16.296 7.60346 16.2745 7.54533 16.2345C7.4872 16.1945 7.44256 16.1379 7.41731 16.072C7.39206 16.0061 7.38739 15.9341 7.40391 15.8655C7.42043 15.7969 7.45736 15.7349 7.50984 15.6877L8.34007 14.9419H6.23549C6.043 14.9419 5.88669 14.7856 5.88669 14.5931C5.88669 14.4006 6.043 14.2443 6.23549 14.2443H9.25031C9.32089 14.2443 9.38981 14.2657 9.44797 14.3057C9.50613 14.3457 9.55078 14.4024 9.57604 14.4683C9.60129 14.5342 9.60596 14.6062 9.58942 14.6748C9.57288 14.7435 9.5359 14.8054 9.48339 14.8526L8.65316 15.5984H13.797L13.5214 15.2972C13.459 15.2289 13.4262 15.1387 13.4303 15.0463C13.4344 14.9539 13.475 14.8669 13.5433 14.8044C13.6115 14.742 13.7018 14.7093 13.7942 14.7134C13.8866 14.7175 13.9736 14.7581 14.0361 14.8263L14.8622 15.7291C14.921 15.7934 14.9537 15.8774 14.9537 15.9646C14.9537 16.0517 14.921 16.1357 14.8622 16.2L14.0678 17.0681C13.9379 17.2101 13.717 17.2199 13.575 17.09C13.5068 17.0275 13.4662 16.9405 13.4621 16.8481C13.458 16.7557 13.4907 16.6654 13.5532 16.5972L13.8288 16.296ZM13.8288 7.80117H6.23549C6.043 7.80117 5.88669 7.64487 5.88669 7.45237C5.88669 7.25983 6.043 7.10357 6.23549 7.10357H13.797L13.5214 6.80238C13.459 6.73412 13.4262 6.64386 13.4303 6.55146C13.4344 6.45905 13.475 6.37205 13.5433 6.30957C13.6115 6.24716 13.7018 6.21441 13.7942 6.21852C13.8866 6.22262 13.9736 6.26324 14.0361 6.33146L14.8622 7.23424C14.921 7.29853 14.9537 7.38254 14.9537 7.4697C14.9537 7.55687 14.921 7.64087 14.8622 7.70516L14.0678 8.57329C14.0053 8.64149 13.9183 8.6821 13.8259 8.6862C13.7335 8.6903 13.6433 8.65754 13.575 8.59513C13.433 8.4652 13.4232 8.24437 13.5532 8.10236L13.8288 7.80117Z" fill="white"/>
<path fill-rule="evenodd" clip-rule="evenodd" d="M20.053 15.86V18.4099C20.053 18.8071 19.7304 19.1298 19.3331 19.1298H1.71849C1.32356 19.1298 1 18.8075 1 18.4099V4.98827C1 4.59299 1.32316 4.26979 1.71849 4.26979H3.00582V1.71853C3.00582 1.32321 3.32903 1 3.72431 1H19.2624C19.4601 1 19.6312 1.07181 19.7701 1.21076L21.8481 3.2887C21.987 3.42765 22.0588 3.59878 22.0588 3.79646V15.1401C22.0588 15.5373 21.7362 15.86 21.3389 15.86H20.053ZM3.70342 4.26979H17.2565C17.4542 4.26979 17.6254 4.34159 17.7643 4.48055L19.8423 6.55848C19.9812 6.69744 20.053 6.86857 20.053 7.06625V15.1624H21.3389C21.3419 15.1624 21.3448 15.1618 21.3475 15.1607C21.3502 15.1596 21.3526 15.1579 21.3547 15.1559C21.3568 15.1538 21.3584 15.1513 21.3595 15.1486C21.3606 15.1459 21.3612 15.143 21.3612 15.1401V3.99275H19.6004C19.3076 3.99275 19.0661 3.75129 19.0661 3.45839V1.6976H3.72431C3.71877 1.69762 3.71346 1.69984 3.70955 1.70376C3.70563 1.70768 3.70343 1.71299 3.70342 1.71853V4.26979ZM20.8679 3.29515L19.7637 2.19089V3.29515H20.8679ZM17.0603 4.96739H1.71849C1.71295 4.9674 1.70764 4.9696 1.70373 4.97352C1.69982 4.97743 1.69761 4.98274 1.6976 4.98827V18.4099C1.6976 18.4218 1.70663 18.4322 1.71849 18.4322H19.3331C19.339 18.4322 19.3447 18.4298 19.3489 18.4256C19.3531 18.4215 19.3554 18.4158 19.3554 18.4099V7.26249H17.5946C17.3017 7.26249 17.0603 7.02108 17.0603 6.72817V4.96739ZM18.8621 6.56489L17.7579 5.46068V6.56489H18.8621ZM11.4092 9.2401C11.4092 8.72828 11.9966 8.44715 12.3941 8.7602L12.3942 8.76024L14.9339 10.7616C15.0069 10.8181 15.066 10.8906 15.1067 10.9735C15.1474 11.0564 15.1685 11.1475 15.1685 11.2398C15.1685 11.3321 15.1474 11.4232 15.1067 11.5061C15.066 11.589 15.0069 11.6614 14.9339 11.7179L12.3941 13.7194C11.9966 14.0324 11.4092 13.7513 11.4092 13.2394V12.7598H6.23549C6.14263 12.7597 6.05358 12.7229 5.98791 12.6572C5.92225 12.5915 5.88535 12.5025 5.88534 12.4096V10.07C5.88534 9.97712 5.92223 9.88805 5.9879 9.82238C6.05356 9.7567 6.14262 9.7198 6.23549 9.71979H11.4092V9.2401ZM12.1096 13.052L14.4092 11.2398L12.1096 9.42763V10.07C12.1095 10.1629 12.0726 10.2519 12.007 10.3176C11.9413 10.3832 11.8523 10.4201 11.7594 10.4201H6.58569V12.0594H11.7594C11.8523 12.0594 11.9413 12.0963 12.007 12.162C12.0727 12.2277 12.1096 12.3167 12.1096 12.4096V13.052ZM13.8288 16.296H7.74292C7.67236 16.296 7.60346 16.2745 7.54533 16.2345C7.4872 16.1945 7.44256 16.1379 7.41731 16.072C7.39206 16.0061 7.38739 15.9341 7.40391 15.8655C7.42043 15.7969 7.45736 15.7349 7.50984 15.6877L8.34007 14.9419H6.23549C6.043 14.9419 5.88669 14.7856 5.88669 14.5931C5.88669 14.4006 6.043 14.2443 6.23549 14.2443H9.25031C9.32089 14.2443 9.38981 14.2657 9.44797 14.3057C9.50613 14.3457 9.55078 14.4024 9.57604 14.4683C9.60129 14.5342 9.60596 14.6062 9.58942 14.6748C9.57288 14.7435 9.5359 14.8054 9.48339 14.8526L8.65316 15.5984H13.797L13.5214 15.2972C13.459 15.2289 13.4262 15.1387 13.4303 15.0463C13.4344 14.9539 13.475 14.8669 13.5433 14.8044C13.6115 14.742 13.7018 14.7093 13.7942 14.7134C13.8866 14.7175 13.9736 14.7581 14.0361 14.8263L14.8622 15.7291C14.921 15.7934 14.9537 15.8774 14.9537 15.9646C14.9537 16.0517 14.921 16.1357 14.8622 16.2L14.0678 17.0681C13.9379 17.2101 13.717 17.2199 13.575 17.09C13.5068 17.0275 13.4662 16.9405 13.4621 16.8481C13.458 16.7557 13.4907 16.6654 13.5532 16.5972L13.8288 16.296ZM13.8288 7.80117H6.23549C6.043 7.80117 5.88669 7.64487 5.88669 7.45237C5.88669 7.25983 6.043 7.10357 6.23549 7.10357H13.797L13.5214 6.80238C13.459 6.73412 13.4262 6.64386 13.4303 6.55146C13.4344 6.45905 13.475 6.37205 13.5433 6.30957C13.6115 6.24716 13.7018 6.21441 13.7942 6.21852C13.8866 6.22262 13.9736 6.26324 14.0361 6.33146L14.8622 7.23424C14.921 7.29853 14.9537 7.38254 14.9537 7.4697C14.9537 7.55687 14.921 7.64087 14.8622 7.70516L14.0678 8.57329C14.0053 8.64149 13.9183 8.6821 13.8259 8.6862C13.7335 8.6903 13.6433 8.65754 13.575 8.59513C13.433 8.4652 13.4232 8.24437 13.5532 8.10236L13.8288 7.80117Z" stroke="white" stroke-width="0.2" mask="url(#path-1-outside-1_114_430)"/>
</svg>
