<svg width="21" height="21" viewBox="0 0 21 21" fill="none" xmlns="http://www.w3.org/2000/svg">
<path d="M7.63718 3.96635C7.69843 3.90568 7.74712 3.83354 7.78049 3.75405C7.81386 3.67456 7.83124 3.58927 7.83164 3.50307C7.83205 3.41686 7.81547 3.33142 7.78286 3.25162C7.75024 3.17181 7.70223 3.09922 7.64156 3.03797C7.58089 2.97673 7.50875 2.92803 7.42926 2.89467C7.34977 2.8613 7.26448 2.84392 7.17828 2.84351C7.09207 2.84311 7.00663 2.85968 6.92683 2.8923C6.84702 2.92491 6.77443 2.97293 6.71318 3.0336L5.45143 4.28397C4.98243 4.7486 4.59043 5.13622 4.31218 5.4836C4.01906 5.84847 3.79593 6.23085 3.73731 6.69722C3.66468 7.26685 4.13631 7.65622 4.59481 7.65622H16.6252C16.7992 7.65622 16.9662 7.58708 17.0892 7.46401C17.2123 7.34094 17.2814 7.17402 17.2814 6.99997C17.2814 6.82593 17.2123 6.65901 17.0892 6.53593C16.9662 6.41286 16.7992 6.34372 16.6252 6.34372H5.30618L5.33593 6.30522C5.56343 6.02347 5.90031 5.68747 6.40343 5.1896L7.63718 3.96635ZM4.37518 13.3437C4.20113 13.3437 4.03421 13.4129 3.91114 13.5359C3.78807 13.659 3.71893 13.8259 3.71893 14C3.71893 14.174 3.78807 14.3409 3.91114 14.464C4.03421 14.5871 4.20113 14.6562 4.37518 14.6562H15.8701C15.8599 14.6688 15.8497 14.6814 15.8394 14.6938C15.6128 14.9765 15.2759 15.3125 14.7719 15.8112L13.5382 17.0336C13.4145 17.1561 13.3445 17.3228 13.3437 17.4969C13.3429 17.671 13.4113 17.8383 13.5338 17.962C13.6563 18.0857 13.823 18.1556 13.9971 18.1564C14.1712 18.1573 14.3385 18.0889 14.4622 17.9663L15.7231 16.716C16.1929 16.2513 16.5841 15.8637 16.8632 15.5163C17.1554 15.1515 17.3777 14.7691 17.4372 14.3027C17.4398 14.2823 17.4421 14.2619 17.4442 14.2415C17.4976 13.7138 17.0644 13.3437 16.6252 13.3437H4.37518Z" fill="#4D8C9C"/>
</svg>
