<svg width="21" height="21" viewBox="0 0 21 21" fill="none" xmlns="http://www.w3.org/2000/svg">
<path d="M7.637 3.96635C7.69825 3.90568 7.74694 3.83354 7.78031 3.75405C7.81367 3.67456 7.83105 3.58927 7.83146 3.50307C7.83187 3.41686 7.81529 3.33142 7.78267 3.25162C7.75006 3.17181 7.70205 3.09922 7.64138 3.03797C7.5807 2.97673 7.50856 2.92803 7.42907 2.89467C7.34958 2.8613 7.2643 2.84392 7.17809 2.84351C7.09189 2.84311 7.00644 2.85968 6.92664 2.8923C6.84684 2.92491 6.77425 2.97293 6.713 3.0336L5.45125 4.28397C4.98225 4.7486 4.59025 5.13622 4.312 5.4836C4.01888 5.84847 3.79575 6.23085 3.73712 6.69722C3.6645 7.26685 4.13612 7.65622 4.59462 7.65622H16.625C16.799 7.65622 16.966 7.58708 17.089 7.46401C17.2121 7.34094 17.2813 7.17402 17.2813 6.99997C17.2813 6.82593 17.2121 6.65901 17.089 6.53593C16.966 6.41286 16.799 6.34372 16.625 6.34372H5.306L5.33575 6.30522C5.56325 6.02347 5.90013 5.68747 6.40325 5.1896L7.637 3.96635ZM4.375 13.3437C4.20095 13.3437 4.03403 13.4129 3.91096 13.5359C3.78789 13.659 3.71875 13.8259 3.71875 14C3.71875 14.174 3.78789 14.3409 3.91096 14.464C4.03403 14.5871 4.20095 14.6562 4.375 14.6562H15.8699C15.8598 14.6688 15.8495 14.6814 15.8393 14.6938C15.6126 14.9765 15.2758 15.3125 14.7718 15.8112L13.538 17.0336C13.4143 17.1561 13.3444 17.3228 13.3435 17.4969C13.3427 17.671 13.4111 17.8383 13.5336 17.962C13.6562 18.0857 13.8228 18.1556 13.9969 18.1564C14.171 18.1573 14.3383 18.0889 14.462 17.9663L15.7229 16.716C16.1928 16.2513 16.5839 15.8637 16.863 15.5163C17.1553 15.1515 17.3775 14.7691 17.437 14.3027C17.4396 14.2823 17.4419 14.2619 17.444 14.2415C17.4974 13.7138 17.0643 13.3437 16.625 13.3437H4.375Z" fill="white"/>
</svg>
