<svg width="23" height="23" viewBox="0 0 23 23" fill="none" xmlns="http://www.w3.org/2000/svg">
<path d="M11.5 20.3047V0.898438M4.49219 7.45703L6.28906 5.66016L8.08594 7.45703" stroke="#4D8C9C" stroke-width="1.3" stroke-miterlimit="10" stroke-linecap="round" stroke-linejoin="round"/>
<path d="M6.28906 15.543C7.28145 15.543 8.08594 14.7385 8.08594 13.7461C8.08594 12.7537 7.28145 11.9492 6.28906 11.9492C5.29668 11.9492 4.49219 12.7537 4.49219 13.7461C4.49219 14.7385 5.29668 15.543 6.28906 15.543Z" stroke="#4D8C9C" stroke-width="1.3" stroke-miterlimit="10" stroke-linecap="round" stroke-linejoin="round"/>
<path d="M6.28906 11.9492V5.66016" stroke="#4D8C9C" stroke-width="1.3" stroke-miterlimit="10" stroke-linecap="round" stroke-linejoin="round"/>
<path d="M16.8906 9.25391C17.883 9.25391 18.6875 8.44942 18.6875 7.45703C18.6875 6.46464 17.883 5.66016 16.8906 5.66016C15.8982 5.66016 15.0938 6.46464 15.0938 7.45703C15.0938 8.44942 15.8982 9.25391 16.8906 9.25391Z" stroke="#4D8C9C" stroke-width="1.3" stroke-miterlimit="10" stroke-linecap="round" stroke-linejoin="round"/>
<path d="M16.8906 9.25391V15.543M15.0938 13.7461H18.6875M9.70312 20.3047V22.1016M2.69531 22.1016V20.3047M2.69531 20.3047H16.7109M2.69531 20.3047C1.70294 20.3047 0.898438 19.5002 0.898438 18.5078V2.69531C0.898438 1.70294 1.70294 0.898438 2.69531 0.898438H20.3047C21.2971 0.898438 22.1016 1.70294 22.1016 2.69531V18.5078C22.1016 19.5002 21.2971 20.3047 20.3047 20.3047V22.1016M13.2969 22.1016V20.3047" stroke="#4D8C9C" stroke-width="1.3" stroke-miterlimit="10" stroke-linecap="round" stroke-linejoin="round"/>
</svg>
