<svg width="31" height="24" viewBox="0 0 31 24" fill="none" xmlns="http://www.w3.org/2000/svg">
<path d="M15.209 21.1875V0.9375M5.94141 7.78125L8.3177 5.90625L10.694 7.78125" stroke="white" stroke-width="1.3" stroke-miterlimit="10" stroke-linecap="round" stroke-linejoin="round"/>
<path d="M8.3177 16.2188C9.63009 16.2188 10.694 15.3793 10.694 14.3438C10.694 13.3082 9.63009 12.4688 8.3177 12.4688C7.00531 12.4688 5.94141 13.3082 5.94141 14.3438C5.94141 15.3793 7.00531 16.2188 8.3177 16.2188Z" stroke="white" stroke-width="1.3" stroke-miterlimit="10" stroke-linecap="round" stroke-linejoin="round"/>
<path d="M8.31738 12.4688V5.90625" stroke="white" stroke-width="1.3" stroke-miterlimit="10" stroke-linecap="round" stroke-linejoin="round"/>
<path d="M22.3372 9.65625C23.6496 9.65625 24.7135 8.81678 24.7135 7.78125C24.7135 6.74572 23.6496 5.90625 22.3372 5.90625C21.0248 5.90625 19.9609 6.74572 19.9609 7.78125C19.9609 8.81678 21.0248 9.65625 22.3372 9.65625Z" stroke="white" stroke-width="1.3" stroke-miterlimit="10" stroke-linecap="round" stroke-linejoin="round"/>
<path d="M22.3375 9.65625V16.2188M19.9612 14.3438H24.7138M12.8323 21.1875V23.0625M3.56477 23.0625V21.1875M3.56477 21.1875H22.0999M3.56477 21.1875C2.2524 21.1875 1.18848 20.348 1.18848 19.3125V2.8125C1.18848 1.77698 2.2524 0.9375 3.56477 0.9375H26.8525C28.1648 0.9375 29.2287 1.77698 29.2287 2.8125V19.3125C29.2287 20.348 28.1648 21.1875 26.8525 21.1875V23.0625M17.5849 23.0625V21.1875" stroke="white" stroke-width="1.3" stroke-miterlimit="10" stroke-linecap="round" stroke-linejoin="round"/>
</svg>
