<svg width="24" height="24" viewBox="0 0 24 24" fill="none" xmlns="http://www.w3.org/2000/svg">
<path d="M22.3448 19.8908C22.2235 19.7332 22.0447 19.6302 21.8475 19.6044C21.6503 19.5787 21.451 19.6323 21.2933 19.7535C20.5958 20.2897 19.6493 20.3857 18.8543 20.0588C19.8871 18.1605 20.6101 16.1258 20.9671 13.9867C21.0589 13.453 20.9596 12.904 20.6868 12.4361C20.414 11.9682 19.9851 11.6115 19.4753 11.4285L18.0008 10.9028V8.06475C17.9987 7.55034 17.8213 7.05201 17.4979 6.65198C17.1745 6.25194 16.7244 5.97409 16.2218 5.86425L15.0008 5.60325V4.5C15.0008 3.2595 13.9913 2.25 12.7508 2.25H11.2508C10.0103 2.25 9.00081 3.2595 9.00081 4.5V5.60325L7.77906 5.865C7.27658 5.97486 6.82657 6.25274 6.50328 6.65279C6.18 7.05284 6.00276 7.55116 6.00081 8.0655V10.9035L4.52331 11.4307C4.01477 11.6139 3.58688 11.9701 3.31456 12.437C3.04224 12.9039 2.94285 13.4517 3.03381 13.9845C3.39156 16.1265 4.11381 18.1613 5.14731 20.0602C4.35156 20.388 3.40506 20.2905 2.70831 19.755C2.63025 19.695 2.54115 19.651 2.44608 19.6255C2.35102 19.5999 2.25185 19.5933 2.15424 19.6061C2.05664 19.6189 1.9625 19.6508 1.87722 19.6999C1.79193 19.7491 1.71716 19.8146 1.65718 19.8926C1.53604 20.0503 1.48249 20.2496 1.5083 20.4467C1.53411 20.6438 1.63717 20.8226 1.79481 20.9437C2.49231 21.4807 3.34656 21.7485 4.20231 21.7485C5.05806 21.7485 5.91156 21.4807 6.60906 20.9437C7.03937 20.6199 7.56335 20.4447 8.10193 20.4447C8.64052 20.4447 9.16449 20.6199 9.59481 20.9437C10.9891 22.0177 13.0141 22.017 14.4083 20.9437C15.2738 20.2778 16.5286 20.2785 17.3941 20.9437C18.7868 22.0162 20.8126 22.0177 22.2083 20.9437C22.366 20.8226 22.4692 20.6438 22.495 20.4466C22.5209 20.2494 22.4674 20.05 22.3463 19.8923L22.3448 19.8908ZM11.2501 3.75H12.7501C13.1641 3.75 13.5001 4.08675 13.5001 4.5V5.34525C12.5036 5.226 11.4965 5.226 10.5001 5.34525V4.5C10.5001 4.08675 10.8361 3.75 11.2501 3.75ZM7.50006 8.06475C7.50006 7.713 7.74981 7.40475 8.09256 7.33125L9.64431 6.999C11.1967 6.66451 12.8026 6.66451 14.3551 6.999L15.9061 7.3305C16.2496 7.40475 16.4993 7.713 16.4993 8.06475V10.3673L13.2938 9.2235C12.4566 8.92645 11.5427 8.92645 10.7056 9.2235L7.50006 10.3673V8.06475ZM6.44781 19.3148C5.49713 17.5743 4.84269 15.6878 4.51131 13.7325C4.47927 13.5469 4.51356 13.3559 4.60817 13.193C4.70279 13.0301 4.85169 12.9057 5.02881 12.8415L11.2088 10.6365C11.2223 10.632 11.2358 10.6305 11.2493 10.626V20.136C10.9813 20.053 10.73 19.9235 10.5068 19.7535C9.34656 18.8617 7.75431 18.7222 6.44706 19.3155L6.44781 19.3148ZM13.4926 19.7535C13.2695 19.9236 13.0181 20.0528 12.7501 20.1353V10.626C12.7636 10.6305 12.7771 10.632 12.7906 10.6365L18.9676 12.84C19.3351 12.9728 19.5541 13.3485 19.4873 13.7362C19.1564 15.6904 18.5022 17.5757 17.5516 19.3148C16.2451 18.7222 14.6528 18.861 13.4926 19.7535Z" fill="white"/>
</svg>
